<mxfile host="65bd71144e">
    <diagram id="HPFAMImzeuBT_bPIu3zU" name="Page-1">
        <mxGraphModel dx="1688" dy="898" grid="1" gridSize="10" guides="1" tooltips="1" connect="1" arrows="1" fold="1" page="1" pageScale="1" pageWidth="827" pageHeight="1169" math="0" shadow="0">
            <root>
                <mxCell id="0"/>
                <mxCell id="1" parent="0"/>
                <mxCell id="6" value="Region: Europe (Paris) (eu-west-3)" style="points=[[0,0],[0.25,0],[0.5,0],[0.75,0],[1,0],[1,0.25],[1,0.5],[1,0.75],[1,1],[0.75,1],[0.5,1],[0.25,1],[0,1],[0,0.75],[0,0.5],[0,0.25]];outlineConnect=0;gradientColor=none;html=1;whiteSpace=wrap;fontSize=15;fontStyle=0;container=1;pointerEvents=0;collapsible=0;recursiveResize=0;shape=mxgraph.aws4.group;grIcon=mxgraph.aws4.group_region;strokeColor=#147EBA;fillColor=none;verticalAlign=top;align=left;spacingLeft=30;fontColor=#147EBA;dashed=1;" vertex="1" parent="1">
                    <mxGeometry x="19" y="30" width="661" height="340" as="geometry"/>
                </mxCell>
                <mxCell id="2" value="EFS&lt;br&gt;" style="sketch=0;outlineConnect=0;fontColor=#3F8624;gradientColor=none;fillColor=#3F8624;strokeColor=none;dashed=0;verticalLabelPosition=bottom;verticalAlign=top;align=center;html=1;fontSize=12;fontStyle=0;aspect=fixed;pointerEvents=1;shape=mxgraph.aws4.elastic_file_system_standard;" parent="6" vertex="1">
                    <mxGeometry x="21" y="126" width="78" height="78" as="geometry"/>
                </mxCell>
                <mxCell id="10" value="Private Subnet A" style="points=[[0,0],[0.25,0],[0.5,0],[0.75,0],[1,0],[1,0.25],[1,0.5],[1,0.75],[1,1],[0.75,1],[0.5,1],[0.25,1],[0,1],[0,0.75],[0,0.5],[0,0.25]];outlineConnect=0;gradientColor=none;html=1;whiteSpace=wrap;fontSize=12;fontStyle=0;container=1;pointerEvents=0;collapsible=0;recursiveResize=0;shape=mxgraph.aws4.group;grIcon=mxgraph.aws4.group_security_group;grStroke=0;strokeColor=#147EBA;fillColor=#E6F2F8;verticalAlign=top;align=left;spacingLeft=30;fontColor=#147EBA;dashed=0;" vertex="1" parent="6">
                    <mxGeometry x="134" y="100" width="136" height="180" as="geometry"/>
                </mxCell>
                <mxCell id="3" value="Access&lt;br&gt;Point A" style="sketch=0;outlineConnect=0;fontColor=#232F3E;gradientColor=none;fillColor=#3F8624;strokeColor=none;dashed=0;verticalLabelPosition=bottom;verticalAlign=top;align=center;html=1;fontSize=12;fontStyle=0;aspect=fixed;pointerEvents=1;shape=mxgraph.aws4.general_access_points;" vertex="1" parent="10">
                    <mxGeometry x="32.5" y="40" width="65" height="78" as="geometry"/>
                </mxCell>
                <mxCell id="7" value="Availability Zone A&#10; (eu-west-3a)" style="fillColor=none;strokeColor=#147EBA;dashed=1;verticalAlign=top;fontStyle=0;fontColor=#147EBA;fontSize=15;" vertex="1" parent="10">
                    <mxGeometry x="-10" y="-50" width="160" height="230" as="geometry"/>
                </mxCell>
                <mxCell id="17" value="Private Subnet C" style="points=[[0,0],[0.25,0],[0.5,0],[0.75,0],[1,0],[1,0.25],[1,0.5],[1,0.75],[1,1],[0.75,1],[0.5,1],[0.25,1],[0,1],[0,0.75],[0,0.5],[0,0.25]];outlineConnect=0;gradientColor=none;html=1;whiteSpace=wrap;fontSize=12;fontStyle=0;container=1;pointerEvents=0;collapsible=0;recursiveResize=0;shape=mxgraph.aws4.group;grIcon=mxgraph.aws4.group_security_group;grStroke=0;strokeColor=#147EBA;fillColor=#E6F2F8;verticalAlign=top;align=left;spacingLeft=30;fontColor=#147EBA;dashed=0;" vertex="1" parent="6">
                    <mxGeometry x="461" y="100" width="125" height="180" as="geometry"/>
                </mxCell>
                <mxCell id="18" value="Access&lt;br&gt;Point C" style="sketch=0;outlineConnect=0;fontColor=#232F3E;gradientColor=none;fillColor=#3F8624;strokeColor=none;dashed=0;verticalLabelPosition=bottom;verticalAlign=top;align=center;html=1;fontSize=12;fontStyle=0;aspect=fixed;pointerEvents=1;shape=mxgraph.aws4.general_access_points;" vertex="1" parent="17">
                    <mxGeometry x="32.5" y="40" width="65" height="78" as="geometry"/>
                </mxCell>
                <mxCell id="14" value="Private Subnet B" style="points=[[0,0],[0.25,0],[0.5,0],[0.75,0],[1,0],[1,0.25],[1,0.5],[1,0.75],[1,1],[0.75,1],[0.5,1],[0.25,1],[0,1],[0,0.75],[0,0.5],[0,0.25]];outlineConnect=0;gradientColor=none;html=1;whiteSpace=wrap;fontSize=12;fontStyle=0;container=1;pointerEvents=0;collapsible=0;recursiveResize=0;shape=mxgraph.aws4.group;grIcon=mxgraph.aws4.group_security_group;grStroke=0;strokeColor=#147EBA;fillColor=#E6F2F8;verticalAlign=top;align=left;spacingLeft=30;fontColor=#147EBA;dashed=0;" vertex="1" parent="6">
                    <mxGeometry x="301" y="100" width="129" height="180" as="geometry"/>
                </mxCell>
                <mxCell id="15" value="Access&lt;br&gt;Point B" style="sketch=0;outlineConnect=0;fontColor=#232F3E;gradientColor=none;fillColor=#3F8624;strokeColor=none;dashed=0;verticalLabelPosition=bottom;verticalAlign=top;align=center;html=1;fontSize=12;fontStyle=0;aspect=fixed;pointerEvents=1;shape=mxgraph.aws4.general_access_points;" vertex="1" parent="14">
                    <mxGeometry x="32.5" y="40" width="65" height="78" as="geometry"/>
                </mxCell>
                <mxCell id="20" value="Availability Zone B&#10; (eu-west-3b)" style="fillColor=none;strokeColor=#147EBA;dashed=1;verticalAlign=top;fontStyle=0;fontColor=#147EBA;fontSize=15;" vertex="1" parent="6">
                    <mxGeometry x="291" y="50" width="149" height="230" as="geometry"/>
                </mxCell>
                <mxCell id="21" value="Availability Zone C&#10; (eu-west-3c)" style="fillColor=none;strokeColor=#147EBA;dashed=1;verticalAlign=top;fontStyle=0;fontColor=#147EBA;fontSize=15;" vertex="1" parent="6">
                    <mxGeometry x="451" y="50" width="149" height="230" as="geometry"/>
                </mxCell>
                <mxCell id="25" style="edgeStyle=orthogonalEdgeStyle;html=1;fontSize=15;fontColor=#3F8624;strokeWidth=2;" edge="1" parent="6">
                    <mxGeometry relative="1" as="geometry">
                        <mxPoint x="60" y="230" as="sourcePoint"/>
                        <mxPoint x="366" y="259" as="targetPoint"/>
                        <Array as="points">
                            <mxPoint x="60" y="320"/>
                            <mxPoint x="366" y="320"/>
                        </Array>
                    </mxGeometry>
                </mxCell>
                <mxCell id="23" style="edgeStyle=orthogonalEdgeStyle;html=1;fontSize=15;fontColor=#3F8624;strokeWidth=2;" edge="1" parent="6">
                    <mxGeometry relative="1" as="geometry">
                        <mxPoint x="60" y="230" as="sourcePoint"/>
                        <mxPoint x="201" y="260" as="targetPoint"/>
                        <Array as="points">
                            <mxPoint x="60" y="320"/>
                            <mxPoint x="201" y="320"/>
                        </Array>
                    </mxGeometry>
                </mxCell>
                <mxCell id="26" style="edgeStyle=orthogonalEdgeStyle;html=1;fontSize=15;fontColor=#3F8624;strokeWidth=2;entryX=0.5;entryY=1;entryDx=0;entryDy=0;" edge="1" parent="6">
                    <mxGeometry relative="1" as="geometry">
                        <mxPoint x="60" y="230" as="sourcePoint"/>
                        <mxPoint x="525.5" y="260" as="targetPoint"/>
                        <Array as="points">
                            <mxPoint x="60" y="320"/>
                            <mxPoint x="526" y="320"/>
                        </Array>
                    </mxGeometry>
                </mxCell>
            </root>
        </mxGraphModel>
    </diagram>
</mxfile>